# xmcd CD database file
#
# Track frame offsets:
#	150
#	20415
#	35425
#	53629
#	73852
#	88865
#	110612
#	131650
#	154106
#	170993
#	191666
#	210578
#	231434
#	253867
#	275520
#
# Disc length: 3999 seconds
#
# Revision: 0
# Processed by: cddbd v1.5.1PL2 Copyright (c) Steve Scherf et al.
# Submitted via: CDex 1.51
#
DISCID=e20f9d0f
DTITLE=Latina Fever - Latina Fever - CD2
DYEAR=2006
DGENRE=Merengue
TTITLE0=Aventura - Hermanita
TTITLE1=E'Real - Sola
TTITLE2=Monchy Y Alexandra - Dos Locos
TTITLE3=Los Toros Band - Mi Morenita
TTITLE4=Pablo Bachata - El Tiguere Del Diablo
TTITLE5=Milly Quezada - Con Lampara O Con Vela
TTITLE6=Kinito Mendez - Cachamba
TTITLE7=Eddy Herrera - Pegame Tu Vicio
TTITLE8=Alex Bueno - He Vuelto A Nacer
TTITLE9=Zafra Negra - Coqueta Y Sabrosa
TTITLE10=La Makina - Estan Bailando
TTITLE11=Rikarena - El Ki Ki Ki
TTITLE12=Rokabanda - El Tamarindo
TTITLE13=Proyecto Uno - Merenge Con Letra
TTITLE14=Senor Coconut - Showroom Dummies
EXTD=YEAR: 2006
EXTT0=
EXTT1=
EXTT2=
EXTT3=
EXTT4=
EXTT5=
EXTT6=
EXTT7=
EXTT8=
EXTT9=
EXTT10=
EXTT11=
EXTT12=
EXTT13=
EXTT14=
PLAYORDER=
